# xmcd
#
# Track frame offsets:
#	180
#	17125
#	33955
#	40517
#	49495
#	57770
#	67795
#	80055
#	85755
#	94475
#	105310
#	110725
#	118755
#	127485
#	137660
#
# Disc length: 1970 seconds
#
# Revision: 1
# Processed by: cddbd v1.4PL0 Copyright (c) Steve Scherf et al.
# Submitted via: CDmax 1.8
#
DISCID=ce07b00f
DTITLE=Christmas Songs (Cole favorites) - Season's Greetings Organs and Chimes
DYEAR=1977
DGENRE=Folk
TTITLE0=Silent Night
TTITLE1=The 12 Days of Christmas
TTITLE2=We Three Kings
TTITLE3=O Come all Ye Faithful
TTITLE4=God Rest Ye Merry Gentlemen
TTITLE5=Away in a Manger
TTITLE6=O Hoy Night
TTITLE7=Joy to the World
TTITLE8=Hark! The Herald Angels Sing
TTITLE9=The First Noel
TTITLE10=Good King Wenceslas
TTITLE11=O Tannenbaum
TTITLE12=Jingle Bells
TTITLE13=O Little Town of Bethlehem
TTITLE14=Rejoice This Night
EXTD=
EXTT0=
EXTT1=
EXTT2=
EXTT3=
EXTT4=
EXTT5=
EXTT6=
EXTT7=
EXTT8=
EXTT9=
EXTT10=
EXTT11=
EXTT12=
EXTT13=
EXTT14=
PLAYORDER=
